<svg width="252" height="159" viewBox="0 0 252 159" fill="none" xmlns="http://www.w3.org/2000/svg">
<path d="M24.2476 157.064C22.0826 157.064 21.0001 156.346 21.0001 154.912C21.0001 153.334 22.0826 152.402 24.2476 152.115L34.4229 150.824C37.5982 150.394 39.7632 149.677 40.9178 148.673C42.0724 147.525 42.9384 145.589 43.5158 142.863L50.0106 115.108C50.4436 112.957 49.5777 111.881 47.4127 111.881H3.46394C1.15465 111.881 0 111.02 0 109.299C0 108.438 0.288662 107.506 0.865985 106.502C1.58764 105.498 2.45362 104.279 3.46394 102.844L78.3717 4.30311C79.382 2.86874 80.681 2.15155 82.2686 2.15155H86.5985C87.7532 2.15155 88.4027 2.51015 88.547 3.22733C88.8356 3.80108 88.547 4.6617 87.681 5.8092L14.7217 96.82C13.2784 98.8281 13.5671 99.8322 15.5877 99.8322H50.6601C52.5364 99.8322 53.6911 98.9716 54.1241 97.2503L64.0829 54.6495C64.5159 53.2152 65.5262 52.0677 67.1139 51.207L75.5572 46.6888C76.7119 45.9716 77.5778 45.8281 78.1552 46.2584C78.8768 46.6888 79.0933 47.4777 78.8046 48.6252L67.7633 96.82C67.3304 98.8281 68.052 99.8322 69.9283 99.8322H79.4541C81.3304 99.8322 82.0521 100.693 81.6191 102.414L79.8871 109.299C79.4541 111.02 78.3717 111.881 76.6397 111.881H67.1139C65.0932 111.881 63.8664 112.885 63.4334 114.893L56.9385 142.863C56.3612 145.876 56.3612 147.955 56.9385 149.103C57.6602 150.107 59.4643 150.824 62.3509 151.254L66.2479 151.9C67.5468 152.043 68.4128 152.402 68.8458 152.976C69.2788 153.406 69.4953 153.908 69.4953 154.482C69.4953 156.203 68.1963 157.064 65.5984 157.064H24.2476Z" fill="#4C4D48"/>
<path d="M113.781 159C103.244 159 95.6671 154.267 91.0485 144.8C86.4299 135.189 84.1206 122.495 84.1206 106.717C84.1206 98.5413 85.0588 89.6482 86.9351 80.0379C88.9557 70.4276 91.7702 60.9608 95.3785 51.6373C98.9867 42.1705 103.244 33.5643 108.152 25.8187C113.203 17.9296 118.76 11.6901 124.822 7.10013C130.884 2.36671 137.307 0 144.09 0C154.626 0 162.204 4.80514 166.822 14.4154C171.441 23.8823 173.75 36.5047 173.75 52.2828C173.75 60.3153 172.74 69.1367 170.719 78.747C168.843 88.3572 166.101 97.8958 162.492 107.363C158.884 116.686 154.554 125.292 149.503 133.181C144.595 140.927 139.111 147.166 133.049 151.9C126.987 156.633 120.564 159 113.781 159ZM114.863 153.406C119.626 153.406 124.028 151.326 128.069 147.166C132.255 143.007 136.08 137.413 139.544 130.384C143.008 123.356 146.039 115.61 148.637 107.147C151.379 98.6847 153.688 90.0785 155.564 81.3288C157.441 72.5792 158.812 64.4032 159.678 56.8011C160.688 49.0555 161.193 42.5291 161.193 37.2219C161.193 26.3207 159.606 18.3599 156.43 13.3396C153.399 8.17591 148.925 5.59404 143.008 5.59404C138.245 5.59404 133.77 7.67388 129.585 11.8336C125.544 15.9932 121.791 21.5873 118.327 28.6157C114.863 35.5007 111.76 43.2463 109.018 51.8525C106.42 60.3153 104.183 68.9215 102.306 77.6712C100.43 86.2774 98.9867 94.4533 97.9764 102.199C97.1104 109.945 96.6774 116.471 96.6774 121.778C96.6774 127.516 97.1826 132.751 98.1929 137.484C99.3476 142.218 101.224 146.091 103.822 149.103C106.42 151.972 110.1 153.406 114.863 153.406Z" fill="#4C4D48"/>
<path d="M187.592 157.064C185.427 157.064 184.345 156.346 184.345 154.912C184.345 153.334 185.427 152.402 187.592 152.115L197.768 150.824C200.943 150.394 203.108 149.677 204.263 148.673C205.417 147.525 206.283 145.589 206.861 142.863L213.355 115.108C213.788 112.957 212.922 111.881 210.757 111.881H166.809C164.499 111.881 163.345 111.02 163.345 109.299C163.345 108.438 163.633 107.506 164.211 106.502C164.932 105.498 165.798 104.279 166.809 102.844L241.716 4.30311C242.727 2.86874 244.026 2.15155 245.613 2.15155H249.943C251.098 2.15155 251.747 2.51015 251.892 3.22733C252.18 3.80108 251.892 4.6617 251.026 5.8092L178.067 96.82C176.623 98.8281 176.912 99.8322 178.932 99.8322H214.005C215.881 99.8322 217.036 98.9716 217.469 97.2503L227.428 54.6495C227.861 53.2152 228.871 52.0677 230.459 51.207L238.902 46.6888C240.057 45.9716 240.923 45.8281 241.5 46.2584C242.222 46.6888 242.438 47.4777 242.149 48.6252L231.108 96.82C230.675 98.8281 231.397 99.8322 233.273 99.8322H242.799C244.675 99.8322 245.397 100.693 244.964 102.414L243.232 109.299C242.799 111.02 241.716 111.881 239.984 111.881H230.459C228.438 111.881 227.211 112.885 226.778 114.893L220.283 142.863C219.706 145.876 219.706 147.955 220.283 149.103C221.005 150.107 222.809 150.824 225.696 151.254L229.593 151.9C230.892 152.043 231.758 152.402 232.191 152.976C232.624 153.406 232.84 153.908 232.84 154.482C232.84 156.203 231.541 157.064 228.943 157.064H187.592Z" fill="#4C4D48"/>
</svg>
