<svg width="256" height="256" viewBox="0 0 256 256" fill="none" xmlns="http://www.w3.org/2000/svg">
<rect width="256" height="256" fill="white"/>
<path d="M91.016 137V119.504H94.856L103.064 132.68H103.208L103.088 126.968V119.504H106.136V137H102.488L94.304 124.04H94.136L94.232 129.272V137H91.016ZM113.26 137.216C112.284 137.216 111.452 137.024 110.764 136.64C110.076 136.256 109.556 135.688 109.204 134.936C108.852 134.168 108.676 133.24 108.676 132.152V124.232H111.676V131.36C111.676 132.08 111.772 132.696 111.964 133.208C112.156 133.704 112.452 134.088 112.852 134.36C113.252 134.632 113.772 134.768 114.412 134.768C115.052 134.768 115.604 134.608 116.068 134.288C116.548 133.968 116.916 133.544 117.172 133.016C117.428 132.472 117.556 131.864 117.556 131.192V124.232H120.556V137H117.676L117.556 134.528H117.412C117.092 135.392 116.556 136.056 115.804 136.52C115.068 136.984 114.22 137.216 113.26 137.216ZM125.504 137L121.04 124.208H124.28L126.512 131.552L127.304 134.48H127.4L128.192 131.576L130.424 124.208H133.664L129.224 137H125.504ZM139.491 137.216C138.531 137.216 137.667 137.072 136.899 136.784C136.131 136.48 135.459 136.04 134.883 135.464C134.323 134.888 133.891 134.192 133.587 133.376C133.299 132.56 133.155 131.64 133.155 130.616C133.155 129.304 133.403 128.152 133.899 127.16C134.411 126.168 135.139 125.392 136.083 124.832C137.027 124.272 138.163 123.992 139.491 123.992C140.435 123.992 141.291 124.144 142.059 124.448C142.827 124.752 143.483 125.192 144.027 125.768C144.587 126.344 145.019 127.04 145.323 127.856C145.627 128.656 145.779 129.576 145.779 130.616C145.779 131.912 145.523 133.056 145.011 134.048C144.515 135.04 143.795 135.816 142.851 136.376C141.923 136.936 140.803 137.216 139.491 137.216ZM139.467 134.744C140.123 134.744 140.699 134.592 141.195 134.288C141.691 133.968 142.075 133.504 142.347 132.896C142.619 132.272 142.755 131.512 142.755 130.616C142.755 129.944 142.675 129.352 142.515 128.84C142.371 128.312 142.155 127.872 141.867 127.52C141.579 127.168 141.235 126.904 140.835 126.728C140.435 126.552 139.987 126.464 139.491 126.464C138.835 126.464 138.251 126.624 137.739 126.944C137.243 127.248 136.859 127.712 136.587 128.336C136.315 128.944 136.179 129.704 136.179 130.616C136.179 131.288 136.251 131.888 136.395 132.416C136.555 132.928 136.779 133.36 137.067 133.712C137.355 134.048 137.699 134.304 138.099 134.48C138.515 134.656 138.971 134.744 139.467 134.744ZM147.237 137V124.232H149.949L150.093 126.368H150.189C150.477 125.552 150.941 124.968 151.581 124.616C152.237 124.248 152.981 124.064 153.813 124.064C153.957 124.064 154.085 124.064 154.197 124.064C154.325 124.064 154.445 124.064 154.557 124.064V126.896C154.461 126.896 154.341 126.896 154.197 126.896C154.069 126.88 153.925 126.872 153.765 126.872C152.997 126.872 152.357 127 151.845 127.256C151.333 127.496 150.941 127.848 150.669 128.312C150.413 128.776 150.269 129.344 150.237 130.016V137H147.237ZM159.574 137.216C158.806 137.216 158.102 137.08 157.462 136.808C156.838 136.52 156.294 136.096 155.83 135.536C155.382 134.976 155.038 134.288 154.798 133.472C154.558 132.64 154.438 131.688 154.438 130.616C154.438 129.16 154.646 127.944 155.062 126.968C155.494 125.976 156.094 125.232 156.862 124.736C157.646 124.24 158.55 123.992 159.574 123.992C160.278 123.992 160.902 124.104 161.446 124.328C162.006 124.536 162.486 124.832 162.886 125.216C163.286 125.6 163.59 126.056 163.798 126.584H163.966L164.086 124.232H166.966V137H163.966V134.624H163.798C163.494 135.408 162.974 136.04 162.238 136.52C161.502 136.984 160.614 137.216 159.574 137.216ZM160.702 134.768C161.422 134.768 162.014 134.6 162.478 134.264C162.958 133.928 163.318 133.496 163.558 132.968C163.798 132.424 163.918 131.856 163.918 131.264V129.944C163.918 129.336 163.798 128.768 163.558 128.24C163.318 127.696 162.958 127.264 162.478 126.944C162.014 126.608 161.422 126.44 160.702 126.44C160.062 126.44 159.502 126.592 159.022 126.896C158.542 127.2 158.166 127.664 157.894 128.288C157.622 128.896 157.486 129.672 157.486 130.616C157.486 131.528 157.622 132.296 157.894 132.92C158.166 133.544 158.542 134.008 159.022 134.312C159.502 134.616 160.062 134.768 160.702 134.768Z" fill="#0F0F0F"/>
</svg>
